<svg width="199" height="20" viewBox="0 0 199 20" fill="none" xmlns="http://www.w3.org/2000/svg">
<path d="M0.376065 19V0.818181H7.88672C9.24799 0.818181 10.4228 1.08452 11.4112 1.61719C12.4055 2.14394 13.172 2.8808 13.7106 3.82777C14.2492 4.76882 14.5185 5.86375 14.5185 7.11257C14.5185 8.36731 14.2433 9.4652 13.6928 10.4062C13.1483 11.3414 12.37 12.0664 11.358 12.5813C10.3459 13.0962 9.14441 13.3537 7.75355 13.3537H3.11932V9.89134H6.93679C7.59967 9.89134 8.15305 9.77592 8.59695 9.5451C9.04676 9.31428 9.38707 8.99171 9.6179 8.57741C9.84872 8.1572 9.96413 7.66892 9.96413 7.11257C9.96413 6.55031 9.84872 6.06498 9.6179 5.6566C9.38707 5.24231 9.04676 4.9227 8.59695 4.6978C8.14714 4.47289 7.59375 4.36044 6.93679 4.36044H4.7706V19H0.376065ZM19.1847 19V0.818181H23.5792V8.11577H30.7436V0.818181H35.1293V19H30.7436V11.6935H23.5792V19H19.1847ZM57.5467 9.90909C57.5467 11.9096 57.162 13.6052 56.3926 14.9961C55.6232 16.387 54.5815 17.4434 53.2676 18.1655C51.9596 18.8875 50.4918 19.2486 48.8642 19.2486C47.2306 19.2486 45.7599 18.8846 44.4519 18.1566C43.1439 17.4286 42.1052 16.3722 41.3358 14.9872C40.5723 13.5964 40.1905 11.9036 40.1905 9.90909C40.1905 7.90862 40.5723 6.21295 41.3358 4.82209C42.1052 3.43123 43.1439 2.37476 44.4519 1.6527C45.7599 0.930634 47.2306 0.569602 48.8642 0.569602C50.4918 0.569602 51.9596 0.930634 53.2676 1.6527C54.5815 2.37476 55.6232 3.43123 56.3926 4.82209C57.162 6.21295 57.5467 7.90862 57.5467 9.90909ZM53.0545 9.90909C53.0545 8.72538 52.8858 7.72514 52.5485 6.90838C52.217 6.09162 51.7376 5.47313 51.1103 5.05291C50.4888 4.63269 49.7401 4.42258 48.8642 4.42258C47.9941 4.42258 47.2454 4.63269 46.6181 5.05291C45.9907 5.47313 45.5083 6.09162 45.171 6.90838C44.8395 7.72514 44.6738 8.72538 44.6738 9.90909C44.6738 11.0928 44.8395 12.093 45.171 12.9098C45.5083 13.7266 45.9907 14.3451 46.6181 14.7653C47.2454 15.1855 47.9941 15.3956 48.8642 15.3956C49.7401 15.3956 50.4888 15.1855 51.1103 14.7653C51.7376 14.3451 52.217 13.7266 52.5485 12.9098C52.8858 12.093 53.0545 11.0928 53.0545 9.90909ZM61.1875 4.38707V0.818181H76.555V4.38707H71.0419V19H66.7095V4.38707H61.1875ZM97.532 9.90909C97.532 11.9096 97.1473 13.6052 96.3779 14.9961C95.6085 16.387 94.5669 17.4434 93.2529 18.1655C91.9449 18.8875 90.4771 19.2486 88.8495 19.2486C87.216 19.2486 85.7452 18.8846 84.4372 18.1566C83.1292 17.4286 82.0905 16.3722 81.3211 14.9872C80.5576 13.5964 80.1759 11.9036 80.1759 9.90909C80.1759 7.90862 80.5576 6.21295 81.3211 4.82209C82.0905 3.43123 83.1292 2.37476 84.4372 1.6527C85.7452 0.930634 87.216 0.569602 88.8495 0.569602C90.4771 0.569602 91.9449 0.930634 93.2529 1.6527C94.5669 2.37476 95.6085 3.43123 96.3779 4.82209C97.1473 6.21295 97.532 7.90862 97.532 9.90909ZM93.0399 9.90909C93.0399 8.72538 92.8712 7.72514 92.5338 6.90838C92.2024 6.09162 91.723 5.47313 91.0956 5.05291C90.4742 4.63269 89.7255 4.42258 88.8495 4.42258C87.9795 4.42258 87.2308 4.63269 86.6034 5.05291C85.9761 5.47313 85.4937 6.09162 85.1563 6.90838C84.8249 7.72514 84.6592 8.72538 84.6592 9.90909C84.6592 11.0928 84.8249 12.093 85.1563 12.9098C85.4937 13.7266 85.9761 14.3451 86.6034 14.7653C87.2308 15.1855 87.9795 15.3956 88.8495 15.3956C89.7255 15.3956 90.4742 15.1855 91.0956 14.7653C91.723 14.3451 92.2024 13.7266 92.5338 12.9098C92.8712 12.093 93.0399 11.0928 93.0399 9.90909ZM102.598 19V0.818181H106.992V8.11577H114.157V0.818181H118.542V19H114.157V11.6935H106.992V19H102.598ZM127.732 19H123.009L129.143 0.818181H134.994L141.128 19H136.405L132.135 5.39915H131.993L127.732 19ZM127.101 11.8445H136.974V15.1825H127.101V11.8445ZM147.273 0.818181L151.339 14.1349H151.49L155.556 0.818181H160.474L154.34 19H148.489L142.354 0.818181H147.273ZM164.932 19V0.818181H177.609V4.38707H169.326V8.11577H176.961V11.6935H169.326V15.4311H177.609V19H164.932ZM198.335 0.818181V19H194.607L187.371 8.50639H187.256V19H182.861V0.818181H186.643L193.799 11.294H193.95V0.818181H198.335Z" fill="#66B2FF"/>
</svg>
