<svg width="144" height="18" viewBox="0 0 144 18" fill="none" xmlns="http://www.w3.org/2000/svg">
<path d="M10.94 7.48C10.94 8.29333 10.7533 9.04 10.38 9.72C10.0067 10.3867 9.43333 10.9267 8.66 11.34C7.88667 11.7533 6.92667 11.96 5.78 11.96H3.66V17H0.24V2.96H5.78C6.9 2.96 7.84667 3.15333 8.62 3.54C9.39333 3.92667 9.97333 4.46 10.36 5.14C10.7467 5.82 10.94 6.6 10.94 7.48ZM5.52 9.24C6.17333 9.24 6.66 9.08667 6.98 8.78C7.3 8.47333 7.46 8.04 7.46 7.48C7.46 6.92 7.3 6.48667 6.98 6.18C6.66 5.87333 6.17333 5.72 5.52 5.72H3.66V9.24H5.52ZM14.4405 4.68C13.8405 4.68 13.3471 4.50667 12.9605 4.16C12.5871 3.8 12.4005 3.36 12.4005 2.84C12.4005 2.30667 12.5871 1.86667 12.9605 1.52C13.3471 1.16 13.8405 0.979999 14.4405 0.979999C15.0271 0.979999 15.5071 1.16 15.8805 1.52C16.2671 1.86667 16.4605 2.30667 16.4605 2.84C16.4605 3.36 16.2671 3.8 15.8805 4.16C15.5071 4.50667 15.0271 4.68 14.4405 4.68ZM16.1405 5.84V17H12.7205V5.84H16.1405ZM17.9389 11.42C17.9389 10.26 18.1722 9.24667 18.6389 8.38C19.1189 7.51333 19.7789 6.84667 20.6189 6.38C21.4722 5.91333 22.4456 5.68 23.5389 5.68C24.9389 5.68 26.1056 6.04667 27.0389 6.78C27.9856 7.51333 28.6056 8.54667 28.8989 9.88H25.2589C24.9522 9.02667 24.3589 8.6 23.4789 8.6C22.8522 8.6 22.3522 8.84667 21.9789 9.34C21.6056 9.82 21.4189 10.5133 21.4189 11.42C21.4189 12.3267 21.6056 13.0267 21.9789 13.52C22.3522 14 22.8522 14.24 23.4789 14.24C24.3589 14.24 24.9522 13.8133 25.2589 12.96H28.8989C28.6056 14.2667 27.9856 15.2933 27.0389 16.04C26.0922 16.7867 24.9256 17.16 23.5389 17.16C22.4456 17.16 21.4722 16.9267 20.6189 16.46C19.7789 15.9933 19.1189 15.3267 18.6389 14.46C18.1722 13.5933 17.9389 12.58 17.9389 11.42ZM36.9483 14.1V17H35.2083C33.9683 17 33.0016 16.7 32.3083 16.1C31.6149 15.4867 31.2683 14.4933 31.2683 13.12V8.68H29.9083V5.84H31.2683V3.12H34.6883V5.84H36.9283V8.68H34.6883V13.16C34.6883 13.4933 34.7683 13.7333 34.9283 13.88C35.0883 14.0267 35.3549 14.1 35.7283 14.1H36.9483ZM49.8733 5.84V17H46.4533V15.48C46.1066 15.9733 45.6333 16.3733 45.0333 16.68C44.4466 16.9733 43.7933 17.12 43.0733 17.12C42.2199 17.12 41.4666 16.9333 40.8133 16.56C40.1599 16.1733 39.6533 15.62 39.2933 14.9C38.9333 14.18 38.7533 13.3333 38.7533 12.36V5.84H42.1533V11.9C42.1533 12.6467 42.3466 13.2267 42.7333 13.64C43.1199 14.0533 43.6399 14.26 44.2933 14.26C44.9599 14.26 45.4866 14.0533 45.8733 13.64C46.2599 13.2267 46.4533 12.6467 46.4533 11.9V5.84H49.8733ZM55.7498 7.7C56.1498 7.08667 56.6498 6.60667 57.2498 6.26C57.8498 5.9 58.5165 5.72 59.2498 5.72V9.34H58.3098C57.4565 9.34 56.8165 9.52667 56.3898 9.9C55.9632 10.26 55.7498 10.9 55.7498 11.82V17H52.3298V5.84H55.7498V7.7ZM71.4045 11.24C71.4045 11.56 71.3845 11.8933 71.3445 12.24H63.6045C63.6579 12.9333 63.8779 13.4667 64.2645 13.84C64.6645 14.2 65.1512 14.38 65.7245 14.38C66.5779 14.38 67.1712 14.02 67.5045 13.3H71.1445C70.9579 14.0333 70.6179 14.6933 70.1245 15.28C69.6445 15.8667 69.0379 16.3267 68.3045 16.66C67.5712 16.9933 66.7512 17.16 65.8445 17.16C64.7512 17.16 63.7779 16.9267 62.9245 16.46C62.0712 15.9933 61.4045 15.3267 60.9245 14.46C60.4445 13.5933 60.2045 12.58 60.2045 11.42C60.2045 10.26 60.4379 9.24667 60.9045 8.38C61.3845 7.51333 62.0512 6.84667 62.9045 6.38C63.7579 5.91333 64.7379 5.68 65.8445 5.68C66.9245 5.68 67.8845 5.90667 68.7245 6.36C69.5645 6.81333 70.2179 7.46 70.6845 8.3C71.1645 9.14 71.4045 10.12 71.4045 11.24ZM67.9045 10.34C67.9045 9.75333 67.7045 9.28667 67.3045 8.94C66.9045 8.59333 66.4045 8.42 65.8045 8.42C65.2312 8.42 64.7445 8.58667 64.3445 8.92C63.9579 9.25333 63.7179 9.72667 63.6245 10.34H67.9045ZM85.3688 2.96V17H81.9488V11.22H76.6288V17H73.2088V2.96H76.6288V8.46H81.9488V2.96H85.3688ZM87.1577 11.4C87.1577 10.2533 87.371 9.24667 87.7977 8.38C88.2377 7.51333 88.831 6.84667 89.5777 6.38C90.3243 5.91333 91.1577 5.68 92.0777 5.68C92.8643 5.68 93.551 5.84 94.1377 6.16C94.7377 6.48 95.1977 6.9 95.5177 7.42V5.84H98.9377V17H95.5177V15.42C95.1843 15.94 94.7177 16.36 94.1177 16.68C93.531 17 92.8443 17.16 92.0577 17.16C91.151 17.16 90.3243 16.9267 89.5777 16.46C88.831 15.98 88.2377 15.3067 87.7977 14.44C87.371 13.56 87.1577 12.5467 87.1577 11.4ZM95.5177 11.42C95.5177 10.5667 95.2777 9.89333 94.7977 9.4C94.331 8.90667 93.7577 8.66 93.0777 8.66C92.3977 8.66 91.8177 8.90667 91.3377 9.4C90.871 9.88 90.6377 10.5467 90.6377 11.4C90.6377 12.2533 90.871 12.9333 91.3377 13.44C91.8177 13.9333 92.3977 14.18 93.0777 14.18C93.7577 14.18 94.331 13.9333 94.7977 13.44C95.2777 12.9467 95.5177 12.2733 95.5177 11.42ZM106.432 13.8L108.852 5.84H112.492L108.532 17H104.312L100.352 5.84H104.012L106.432 13.8ZM124.451 11.24C124.451 11.56 124.431 11.8933 124.391 12.24H116.651C116.705 12.9333 116.925 13.4667 117.311 13.84C117.711 14.2 118.198 14.38 118.771 14.38C119.625 14.38 120.218 14.02 120.551 13.3H124.191C124.005 14.0333 123.665 14.6933 123.171 15.28C122.691 15.8667 122.085 16.3267 121.351 16.66C120.618 16.9933 119.798 17.16 118.891 17.16C117.798 17.16 116.825 16.9267 115.971 16.46C115.118 15.9933 114.451 15.3267 113.971 14.46C113.491 13.5933 113.251 12.58 113.251 11.42C113.251 10.26 113.485 9.24667 113.951 8.38C114.431 7.51333 115.098 6.84667 115.951 6.38C116.805 5.91333 117.785 5.68 118.891 5.68C119.971 5.68 120.931 5.90667 121.771 6.36C122.611 6.81333 123.265 7.46 123.731 8.3C124.211 9.14 124.451 10.12 124.451 11.24ZM120.951 10.34C120.951 9.75333 120.751 9.28667 120.351 8.94C119.951 8.59333 119.451 8.42 118.851 8.42C118.278 8.42 117.791 8.58667 117.391 8.92C117.005 9.25333 116.765 9.72667 116.671 10.34H120.951ZM133.056 5.72C134.362 5.72 135.402 6.14667 136.176 7C136.962 7.84 137.356 9 137.356 10.48V17H133.956V10.94C133.956 10.1933 133.762 9.61333 133.376 9.2C132.989 8.78667 132.469 8.58 131.816 8.58C131.162 8.58 130.642 8.78667 130.256 9.2C129.869 9.61333 129.676 10.1933 129.676 10.94V17H126.256V5.84H129.676V7.32C130.022 6.82667 130.489 6.44 131.076 6.16C131.662 5.86667 132.322 5.72 133.056 5.72ZM141.332 17.16C140.732 17.16 140.239 16.9867 139.852 16.64C139.479 16.28 139.292 15.84 139.292 15.32C139.292 14.7867 139.479 14.34 139.852 13.98C140.239 13.62 140.732 13.44 141.332 13.44C141.919 13.44 142.399 13.62 142.772 13.98C143.159 14.34 143.352 14.7867 143.352 15.32C143.352 15.84 143.159 16.28 142.772 16.64C142.399 16.9867 141.919 17.16 141.332 17.16Z" fill="black"/>
</svg>
