<svg width="20" height="20" viewBox="0 0 20 20" fill="none" xmlns="http://www.w3.org/2000/svg">
<path d="M14.1359 12.8157L13.5566 13.5566L12.8157 14.1359C11.522 15.1475 9.89548 15.7484 8.12421 15.7484C3.91251 15.7484 0.5 12.3359 0.5 8.12421C0.5 3.91251 3.91251 0.5 8.12421 0.5C12.3359 0.5 15.7484 3.91251 15.7484 8.12421C15.7484 9.89548 15.1475 11.522 14.1359 12.8157ZM13.6237 13.6237H14.5298H15.1665C15.2857 13.6237 15.3962 13.67 15.4769 13.7507L19.3692 17.6429C19.3695 17.6432 19.3698 17.6435 19.37 17.6438C19.5394 17.8159 19.5391 18.0938 19.3672 18.2657L18.2618 19.3711L18.2599 19.373C18.0934 19.5413 17.8178 19.544 17.6448 19.3711L13.7507 15.4769C13.67 15.3962 13.6237 15.2857 13.6237 15.1665V14.5298V13.6237ZM2.62469 8.12421C2.62469 11.166 5.08687 13.6237 8.12421 13.6237C11.166 13.6237 13.6237 11.1615 13.6237 8.12421C13.6237 5.08245 11.1615 2.62469 8.12421 2.62469C5.08245 2.62469 2.62469 5.08687 2.62469 8.12421Z" fill="#555555" stroke="#555555"/>
</svg>
